<svg width="14" height="22" viewBox="0 0 14 22" fill="none" xmlns="http://www.w3.org/2000/svg">
<g opacity="0.5">
<path d="M0.202562 11.8076C-0.359355 12.9122 0.278645 13.4402 1.73431 14.3422C2.97181 15.1067 4.6814 15.3863 5.77956 15.4981C5.32948 15.9308 7.39198 13.9471 1.45198 19.6607C0.192478 20.8679 2.22014 22.8048 3.47873 21.6233L6.88598 18.337C8.1904 19.5919 9.44073 20.7946 10.2932 21.6278C11.5527 22.814 13.5795 20.8936 12.3337 19.6653C12.2402 19.5763 7.71648 15.2368 7.99239 15.5027C9.10431 15.3908 10.7882 15.0948 12.0111 14.3468L12.0101 14.3458C13.4658 13.4392 14.1038 12.9122 13.5501 11.8076C13.2156 11.1806 12.3136 10.6562 11.1127 11.5628C11.1127 11.5628 9.49115 12.8049 6.8759 12.8049C4.25973 12.8049 2.63906 11.5628 2.63906 11.5628C1.43914 10.6517 0.533478 11.1806 0.202562 11.8076Z" fill="white"/>
<path d="M6.87408 11.1302C10.0622 11.1302 12.6656 8.63866 12.6656 5.5715C12.6656 2.4915 10.0622 0 6.87408 0C3.685 0 1.08167 2.4915 1.08167 5.5715C1.08167 8.63866 3.685 11.1302 6.87408 11.1302ZM6.87408 2.82242C8.44066 2.82242 9.7185 4.05167 9.7185 5.5715C9.7185 7.0785 8.44066 8.30775 6.87408 8.30775C5.3075 8.30775 4.02966 7.0785 4.02966 5.5715C4.02875 4.05075 5.30658 2.82242 6.87408 2.82242Z" fill="white"/>
</g>
</svg>
