<svg width="23" height="13" viewBox="0 0 23 13" fill="none" xmlns="http://www.w3.org/2000/svg">
<path opacity="0.5" d="M11.2539 12.9452H12.6282C12.6282 12.9452 13.0437 12.8997 13.255 12.6732C13.4506 12.4653 13.4434 12.0751 13.4434 12.0751C13.4434 12.0751 13.4161 10.248 14.2729 9.97882C15.1167 9.71394 16.2007 11.7447 17.3493 12.5265C18.2177 13.1175 18.8775 12.988 18.8775 12.988L21.9497 12.9452C21.9497 12.9452 23.5569 12.847 22.795 11.5952C22.7332 11.4926 22.3508 10.6695 20.5106 8.97768C18.5842 7.20609 18.843 7.49376 21.1633 4.43051C22.5765 2.56493 23.1415 1.42565 22.9646 0.938606C22.7964 0.474348 21.757 0.596821 21.757 0.596821L18.301 0.616758C18.301 0.616758 18.0451 0.58258 17.8539 0.695084C17.6685 0.806164 17.5492 1.0625 17.5492 1.0625C17.5492 1.0625 17.0014 2.50655 16.2711 3.73412C14.7315 6.32457 14.1147 6.46128 13.8632 6.30036C13.278 5.92582 13.4247 4.79366 13.4247 3.99046C13.4247 1.47977 13.8085 0.433048 12.6757 0.162469C12.299 0.07275 12.023 0.0129376 11.0613 0.00296885C9.82779 -0.00984809 8.78265 0.00724116 8.1918 0.293486C7.79789 0.484316 7.49456 0.910124 7.68001 0.934334C7.90859 0.96424 8.42613 1.07247 8.70071 1.44274C9.0558 1.91981 9.04286 2.99359 9.04286 2.99359C9.04286 2.99359 9.247 5.94861 8.56701 6.31603C8.09979 6.56809 7.46006 6.05399 6.08714 3.70279C5.38415 2.49942 4.85224 1.16789 4.85224 1.16789C4.85224 1.16789 4.75017 0.920093 4.56759 0.787651C4.3462 0.626727 4.03568 0.575459 4.03568 0.575459L0.749314 0.595397C0.749314 0.595397 0.256215 0.609638 0.0750764 0.82183C-0.0859354 1.01124 0.062138 1.40144 0.062138 1.40144C0.062138 1.40144 2.63545 7.36417 5.54804 10.3705C8.22055 13.1261 11.2539 12.9452 11.2539 12.9452Z" fill="white"/>
</svg>
