<svg width="35" height="35" viewBox="0 0 35 35" fill="none" xmlns="http://www.w3.org/2000/svg">
<circle r="17.5" transform="matrix(1 0 0 -1 17.5 17.5)" fill="#EBEDEE" fill-opacity="0.3"/>
<g clip-path="url(#clip0)">
<path d="M17.4977 19.5596L21.6129 15.4445C21.726 15.3312 21.8771 15.2689 22.0383 15.2689C22.1995 15.2689 22.3506 15.3312 22.4638 15.4445L22.8242 15.8051C22.9376 15.9182 23 16.0695 23 16.2306C23 16.3918 22.9376 16.5428 22.8242 16.656L17.9246 21.5557C17.811 21.6693 17.6593 21.7316 17.4979 21.7311C17.3359 21.7316 17.1843 21.6694 17.0706 21.5557L12.1758 16.6606C12.0624 16.5474 12 16.3963 12 16.2351C12 16.0739 12.0624 15.9229 12.1758 15.8096L12.5362 15.4491C12.7708 15.2145 13.1527 15.2145 13.3872 15.4491L17.4977 19.5596Z" fill="white"/>
</g>
<defs>
<clipPath id="clip0">
<rect width="11" height="11" fill="white" transform="matrix(-4.37114e-08 -1 -1 4.37114e-08 23 24)"/>
</clipPath>
</defs>
</svg>
