<svg width="35" height="35" viewBox="0 0 35 35" fill="none" xmlns="http://www.w3.org/2000/svg">
<circle cx="17.5" cy="17.5" r="17.5" fill="#EBEDEE" fill-opacity="0.3"/>
<g clip-path="url(#clip0)">
<path d="M17.4977 15.4404L21.6129 19.5555C21.726 19.6688 21.8771 19.7311 22.0383 19.7311C22.1995 19.7311 22.3506 19.6688 22.4638 19.5555L22.8242 19.1949C22.9376 19.0818 23 18.9305 23 18.7694C23 18.6082 22.9376 18.4572 22.8242 18.344L17.9246 13.4443C17.811 13.3307 17.6593 13.2684 17.4979 13.2689C17.3359 13.2684 17.1843 13.3306 17.0706 13.4443L12.1758 18.3394C12.0624 18.4526 12 18.6037 12 18.7649C12 18.9261 12.0624 19.0771 12.1758 19.1904L12.5362 19.5509C12.7708 19.7855 13.1527 19.7855 13.3872 19.5509L17.4977 15.4404Z" fill="white"/>
</g>
<defs>
<clipPath id="clip0">
<rect width="11" height="11" fill="white" transform="translate(23 11) rotate(90)"/>
</clipPath>
</defs>
</svg>
