<svg width="43" height="43" viewBox="0 0 43 43" fill="none" xmlns="http://www.w3.org/2000/svg">
<circle cx="21.5" cy="21.4993" r="21.5" fill="#F7F7F7"/>
<path fill-rule="evenodd" clip-rule="evenodd" d="M28.0809 21.4997C28.0809 21.7539 27.98 21.9977 27.8002 22.1775C27.6205 22.3572 27.3767 22.4582 27.1225 22.4582L17.5377 22.4582C17.2835 22.4582 17.0397 22.3572 16.86 22.1775C16.6802 21.9977 16.5792 21.7539 16.5792 21.4997C16.5792 21.2455 16.6802 21.0017 16.86 20.822C17.0397 20.6422 17.2835 20.5413 17.5377 20.5413L27.1225 20.5413C27.3767 20.5413 27.6205 20.6422 27.8002 20.822C27.98 21.0017 28.0809 21.2455 28.0809 21.4997Z" fill="#537223"/>
<path fill-rule="evenodd" clip-rule="evenodd" d="M24.5017 21.4997C24.5017 21.7539 24.4007 21.9977 24.221 22.1775C24.0412 22.3572 23.7974 22.4582 23.5432 22.4582L13.9585 22.4582C13.7043 22.4582 13.4605 22.3572 13.2808 22.1775C13.101 21.9977 13 21.7539 13 21.4997C13 21.2455 13.101 21.0017 13.2808 20.822C13.4605 20.6422 13.7043 20.5413 13.9585 20.5413L23.5432 20.5413C23.7974 20.5413 24.0412 20.6422 24.221 20.822C24.4007 21.0017 24.5017 21.2455 24.5017 21.4997Z" fill="#537223"/>
<path fill-rule="evenodd" clip-rule="evenodd" d="M29.7184 20.8207C29.8077 20.9098 29.8785 21.0155 29.9268 21.132C29.9751 21.2484 30 21.3733 30 21.4993C30 21.6254 29.9751 21.7503 29.9268 21.8667C29.8785 21.9831 29.8077 22.0889 29.7184 22.1779L23.9676 27.9288C23.7876 28.1088 23.5435 28.2099 23.289 28.2099C23.0344 28.2099 22.7903 28.1088 22.6104 27.9288C22.4304 27.7488 22.3293 27.5047 22.3293 27.2502C22.3293 26.9957 22.4304 26.7516 22.6104 26.5716L27.6845 21.4993L22.6104 16.4271C22.5213 16.338 22.4506 16.2322 22.4023 16.1158C22.3541 15.9993 22.3293 15.8745 22.3293 15.7485C22.3293 15.6225 22.3541 15.4977 22.4023 15.3812C22.4506 15.2648 22.5213 15.159 22.6104 15.0699C22.6995 14.9808 22.8053 14.9101 22.9217 14.8619C23.0381 14.8136 23.1629 14.7888 23.289 14.7888C23.415 14.7888 23.5398 14.8136 23.6562 14.8619C23.7727 14.9101 23.8785 14.9808 23.9676 15.0699L29.7184 20.8207Z" fill="#537223"/>
</svg>
