<svg width="26" height="26" viewBox="0 0 26 26" fill="none" xmlns="http://www.w3.org/2000/svg">
<path opacity="0.25" d="M11.0331 2.6515C11.9454 2.80158 12.7747 3.27088 13.373 3.97568C13.9714 4.68047 14.2999 5.57492 14.3 6.49946V9.09943H6.5V6.49946C6.5 5.14877 7.1864 3.95799 8.229 3.25859C7.85458 2.9252 7.39175 2.70718 6.89627 2.63077C6.40078 2.55436 5.89378 2.62283 5.43631 2.82793C4.97885 3.03303 4.59043 3.36602 4.31786 3.78678C4.04528 4.20754 3.90017 4.69814 3.9 5.19947V12.9994H24.7C25.0448 12.9994 25.3754 13.1364 25.6192 13.3802C25.863 13.6239 26 13.9546 26 14.2994C26 14.6442 25.863 14.9748 25.6192 15.2186C25.3754 15.4624 25.0448 15.5994 24.7 15.5994V16.8994C24.7002 18.5127 24.2003 20.0865 23.269 21.404C22.3377 22.7214 21.021 23.7178 19.5 24.256V24.6993C19.5 25.0441 19.363 25.3747 19.1192 25.6185C18.8754 25.8623 18.5448 25.9993 18.2 25.9993C17.8552 25.9993 17.5246 25.8623 17.2808 25.6185C17.037 25.3747 16.9 25.0441 16.9 24.6993H9.1C9.1 25.0441 8.96304 25.3747 8.71924 25.6185C8.47544 25.8623 8.14478 25.9993 7.8 25.9993C7.45522 25.9993 7.12456 25.8623 6.88076 25.6185C6.63696 25.3747 6.5 25.0441 6.5 24.6993V24.256C4.97901 23.7178 3.66225 22.7214 2.731 21.404C1.79975 20.0865 1.2998 18.5127 1.3 16.8994V15.5994C0.955218 15.5994 0.624558 15.4624 0.380761 15.2186C0.136964 14.9748 0 14.6442 0 14.2994C0 13.9546 0.136964 13.6239 0.380761 13.3802C0.624558 13.1364 0.955218 12.9994 1.3 12.9994V5.19947C1.29994 4.04962 1.68102 2.93217 2.38362 2.02193C3.08621 1.11169 4.0707 0.459992 5.18308 0.168788C6.29547 -0.122417 7.473 -0.0367076 8.53149 0.412509C9.58998 0.861725 10.4697 1.64911 11.0331 2.6515ZM22.1 15.5994H3.9V16.8994C3.9 18.2785 4.44785 19.6011 5.42304 20.5763C6.39823 21.5515 7.72087 22.0993 9.1 22.0993H16.9C18.2791 22.0993 19.6018 21.5515 20.577 20.5763C21.5521 19.6011 22.1 18.2785 22.1 16.8994V15.5994ZM10.4 5.19947C10.0552 5.19947 9.72456 5.33644 9.48076 5.58023C9.23696 5.82403 9.1 6.15468 9.1 6.49946H11.7C11.7 6.15468 11.563 5.82403 11.3192 5.58023C11.0754 5.33644 10.7448 5.19947 10.4 5.19947Z" fill="#2B2A29"/>
</svg>
