<svg width="29" height="21" viewBox="0 0 29 21" fill="none" xmlns="http://www.w3.org/2000/svg">
<path d="M25.925 7.49927V7.67427H26.1C27.5928 7.67427 28.825 8.94028 28.825 10.4993V17.8243H27.0715H26.9442L26.905 17.9454L25.9727 20.8243H24.7779L23.8597 17.9461L23.8209 17.8243H23.693H5.3215H5.19422L5.15501 17.9454L4.22272 20.8243H3.02728L2.09499 17.9454L2.05578 17.8243H1.9285H0.175V10.4993C0.175 8.94028 1.40719 7.67427 2.9 7.67427H3.075V7.49927V2.99927C3.075 1.44028 4.30719 0.174268 5.8 0.174268H23.2C24.6928 0.174268 25.925 1.44028 25.925 2.99927V7.49927ZM23.2 7.67427H23.375V7.49927V2.99927V2.82427H23.2H15.95H15.775V2.99927V7.49927V7.67427H15.95H23.2ZM5.8 2.82427H5.625V2.99927V7.49927V7.67427H5.8H13.05H13.225V7.49927V2.99927V2.82427H13.05H5.8ZM2.9 10.3243H2.725V10.4993V14.9993V15.1743H2.9H26.1H26.275V14.9993V10.4993V10.3243H26.1H2.9Z" fill="#C1BFBF" stroke="#EEEEEE" stroke-width="0.35"/>
</svg>
