<svg width="11" height="11" viewBox="0 0 11 11" fill="none" xmlns="http://www.w3.org/2000/svg">
<g clip-path="url(#clip0)">
<path opacity="0.5" d="M6.55958 5.50232L2.44451 1.38707C2.33121 1.27403 2.26887 1.12289 2.26887 0.96174C2.26887 0.800496 2.33121 0.649448 2.44451 0.536228L2.8051 0.175822C2.91823 0.0624233 3.06946 4.9496e-07 3.23061 4.80872e-07C3.39176 4.66783e-07 3.54281 0.0624232 3.65603 0.175822L8.55568 5.07538C8.66934 5.18896 8.73159 5.34072 8.73114 5.50206C8.73159 5.6641 8.66943 5.81569 8.55568 5.92936L3.66059 10.8242C3.54738 10.9376 3.39633 11 3.23508 11C3.07393 11 2.92288 10.9376 2.80957 10.8242L2.44908 10.4638C2.2145 10.2292 2.2145 9.84732 2.44908 9.61284L6.55958 5.50232Z" fill="#2B2A29"/>
</g>
<defs>
<clipPath id="clip0">
<rect width="11" height="11" fill="white" transform="matrix(-1 8.74228e-08 8.74228e-08 1 11 0)"/>
</clipPath>
</defs>
</svg>
