<svg width="11" height="11" viewBox="0 0 11 11" fill="none" xmlns="http://www.w3.org/2000/svg">
<g clip-path="url(#clip0)">
<path opacity="0.5" d="M4.44042 5.50232L8.55549 1.38707C8.66879 1.27403 8.73113 1.12289 8.73113 0.96174C8.73113 0.800496 8.66879 0.649447 8.55549 0.536228L8.1949 0.175821C8.08177 0.0624228 7.93054 0 7.76939 0C7.60824 0 7.45719 0.0624228 7.34397 0.175821L2.44433 5.07538C2.33066 5.18896 2.26842 5.34072 2.26886 5.50206C2.26842 5.6641 2.33057 5.81569 2.44433 5.92936L7.33941 10.8242C7.45263 10.9376 7.60367 11 7.76492 11C7.92607 11 8.07712 10.9376 8.19043 10.8242L8.55092 10.4638C8.7855 10.2292 8.7855 9.84732 8.55092 9.61284L4.44042 5.50232Z" fill="#2B2A29"/>
</g>
<defs>
<clipPath id="clip0">
<rect width="11" height="11" fill="white"/>
</clipPath>
</defs>
</svg>
