<svg width="14" height="17" viewBox="0 0 14 17" fill="none" xmlns="http://www.w3.org/2000/svg">
<path fill-rule="evenodd" clip-rule="evenodd" d="M7 15.6667C7 15.6667 13 11.6667 13 7C13 5.4087 12.3679 3.88258 11.2426 2.75736C10.1174 1.63214 8.5913 1 7 1C5.4087 1 3.88258 1.63214 2.75736 2.75736C1.63214 3.88258 1 5.4087 1 7C1 11.6667 7 15.6667 7 15.6667ZM11 6.73334C11 8.94248 9.20914 10.7333 7 10.7333C4.79086 10.7333 3 8.94248 3 6.73334C3 4.5242 4.79086 2.73334 7 2.73334C9.20914 2.73334 11 4.5242 11 6.73334Z" fill="white"/>
<path d="M7 15.6667L6.4453 16.4987C6.7812 16.7227 7.2188 16.7227 7.5547 16.4987L7 15.6667ZM12 7C12 8.93139 10.7343 10.8543 9.27405 12.3956C8.56439 13.1447 7.85133 13.7591 7.31458 14.1865C7.04699 14.3996 6.82524 14.5646 6.67232 14.675C6.59592 14.7302 6.53685 14.7716 6.49802 14.7985C6.4786 14.812 6.46426 14.8218 6.45535 14.8278C6.4509 14.8308 6.4478 14.8329 6.44611 14.8341C6.44526 14.8346 6.44477 14.835 6.44463 14.8351C6.44457 14.8351 6.44459 14.8351 6.4447 14.835C6.44475 14.835 6.4449 14.8349 6.44493 14.8349C6.44511 14.8348 6.4453 14.8346 7 15.6667C7.5547 16.4987 7.55494 16.4986 7.55521 16.4984C7.55533 16.4983 7.55562 16.4981 7.55585 16.498C7.55633 16.4976 7.5569 16.4973 7.55756 16.4968C7.55887 16.4959 7.56055 16.4948 7.56259 16.4934C7.56667 16.4907 7.57218 16.487 7.57908 16.4823C7.59287 16.4729 7.61222 16.4597 7.63675 16.4427C7.68581 16.4087 7.75565 16.3597 7.84331 16.2964C8.01852 16.1698 8.26552 15.9859 8.56043 15.751C9.14867 15.2826 9.93561 14.6053 10.726 13.7711C12.2657 12.1458 14 9.73528 14 7H12ZM10.5355 3.46447C11.4732 4.40215 12 5.67392 12 7H14C14 5.14349 13.2625 3.36301 11.9498 2.05025L10.5355 3.46447ZM7 2C8.32608 2 9.59785 2.52678 10.5355 3.46447L11.9498 2.05025C10.637 0.737498 8.85652 0 7 0V2ZM3.46447 3.46447C4.40215 2.52678 5.67392 2 7 2V0C5.14349 0 3.36301 0.737498 2.05025 2.05025L3.46447 3.46447ZM2 7C2 5.67392 2.52678 4.40215 3.46447 3.46447L2.05025 2.05025C0.737498 3.36301 0 5.14349 0 7H2ZM7 15.6667C7.5547 14.8346 7.5549 14.8348 7.55507 14.8349C7.5551 14.8349 7.55525 14.835 7.55531 14.835C7.55542 14.8351 7.55544 14.8351 7.55537 14.8351C7.55523 14.835 7.55474 14.8346 7.55389 14.8341C7.5522 14.8329 7.54911 14.8308 7.54465 14.8278C7.53574 14.8218 7.5214 14.812 7.50199 14.7985C7.46315 14.7716 7.40409 14.7302 7.32768 14.675C7.17477 14.5646 6.95302 14.3996 6.68543 14.1865C6.14867 13.7591 5.43561 13.1447 4.72595 12.3956C3.26574 10.8543 2 8.93139 2 7H0C0 9.73528 1.73426 12.1458 3.27405 13.7711C4.06439 14.6053 4.85133 15.2826 5.43957 15.751C5.73449 15.9859 5.98148 16.1698 6.1567 16.2964C6.24436 16.3597 6.3142 16.4087 6.36325 16.4427C6.38778 16.4597 6.40713 16.4729 6.42093 16.4823C6.42782 16.487 6.43333 16.4907 6.43741 16.4934C6.43945 16.4948 6.44113 16.4959 6.44245 16.4968C6.44311 16.4973 6.44367 16.4976 6.44415 16.498C6.44439 16.4981 6.44468 16.4983 6.4448 16.4984C6.44506 16.4986 6.4453 16.4987 7 15.6667ZM7 11.7333C9.76143 11.7333 12 9.49477 12 6.73334H10C10 8.3902 8.65686 9.73334 7 9.73334V11.7333ZM2 6.73334C2 9.49477 4.23858 11.7333 7 11.7333V9.73334C5.34315 9.73334 4 8.3902 4 6.73334H2ZM7 1.73334C4.23858 1.73334 2 3.97192 2 6.73334H4C4 5.07649 5.34315 3.73334 7 3.73334V1.73334ZM12 6.73334C12 3.97192 9.76143 1.73334 7 1.73334V3.73334C8.65686 3.73334 10 5.07649 10 6.73334H12Z" fill="white"/>
</svg>
