<svg width="29" height="29" viewBox="0 0 29 29" fill="none" xmlns="http://www.w3.org/2000/svg">
<g opacity="0.55">
<path d="M1.29952 15.6198L1.29951 15.6198C0.807966 15.9887 0.1 15.6381 0.1 15.0202V11.0905C0.1 10.8546 0.211086 10.6324 0.399741 10.4908C0.399746 10.4908 0.39975 10.4908 0.399754 10.4908L14.0501 0.250205C14.3167 0.0502572 14.6833 0.0502572 14.9499 0.250205L28.6002 10.4908C28.6003 10.4908 28.6003 10.4908 28.6003 10.4908C28.7889 10.6324 28.9 10.8546 28.9 11.0905V15.0202C28.9 15.6394 28.1922 15.9888 27.7005 15.6198L27.6405 15.6998L27.7005 15.6198L26.7378 14.8974L26.5777 14.7773V14.9774V24.4123V24.5123H26.6777H28.1504C28.5644 24.5123 28.9 24.848 28.9 25.2619V28.1506C28.9 28.5646 28.5644 28.9002 28.1504 28.9002H0.849609C0.435627 28.9002 0.1 28.5646 0.1 28.1506V25.2619C0.1 24.848 0.435627 24.5123 0.849609 24.5123H2.32227H2.42227V24.4123V14.9773V14.7772L2.26224 14.8973L1.29952 15.6198ZM27.4008 26.1116V26.0116H27.3008H27.2958H27.2903H27.2843H27.2777H27.2706H27.263H27.2549H27.2462H27.2371H27.2274H27.2172H27.2065H27.1953H27.1836H27.1714H27.1587H27.1455H27.1318H27.1177H27.103H27.0878H27.0721H27.056H27.0394H27.0223H27.0047H26.9866H26.9681H26.9491H26.9296H26.9096H26.8892H26.8683H26.847H26.8251H26.8029H26.7802H26.757H26.7333H26.7093H26.6847H26.6598H26.6343H26.6085H26.5822H26.5554H26.5283H26.5007H26.4726H26.4441H26.4152H26.3859H26.3562H26.326H26.2954H26.2644H26.233H26.2012H26.1689H26.1363H26.1032H26.0698H26.0359H26.0016H25.967H25.9319H25.8965H25.8606H25.8244H25.7877H25.7507H25.7133H25.6756H25.6374H25.5989H25.56H25.5207H25.481H25.441H25.4006H25.3599H25.3187H25.2773H25.2354H25.1932H25.1507H25.1078H25.0645H25.0209H24.977H24.9327H24.8881H24.8431H24.7978H24.7521H24.7061H24.6598H24.6132H24.5662H24.5189H24.4713H24.4233H24.3751H24.3265H24.2776H24.2284H24.1789H24.129H24.0789H24.0285H23.9777H23.9267H23.8753H23.8237H23.7717H23.7195H23.667H23.6142H23.5611H23.5077H23.4541H23.4001H23.3459H23.2914H23.2367H23.1816H23.1263H23.0707H23.0149H22.9588H22.9024H22.8458H22.7889H22.7318H22.6744H22.6167H22.5589H22.5007H22.4423H22.3837H22.3248H22.2657H22.2064H22.1468H22.087H22.027H21.9667H21.9062H21.8455H21.7846H21.7234H21.662H21.6005H21.5387H21.4766H21.4144H21.352H21.2893H21.2265H21.1635H21.1002H21.0368H20.9732H20.9093H20.8453H20.7811H20.7167H20.6521H20.5874H20.5224H20.4573H20.392H20.3266H20.2609H20.1951H20.1291H20.063H19.9967H19.9302H19.8636H19.7968H19.7299H19.6628H19.5955H19.5281H19.4606H19.3929H19.3251H19.2571H19.189H19.1208H19.0524H18.9839H18.9152H18.8464H18.7775H18.7085H18.6394H18.5701H18.5007H18.4312H18.3616H18.2919H18.2221H18.1521H18.0821H18.0119H17.9417H17.8713H17.8009H17.7303H17.6597H17.5889H17.5181H17.4472H17.3762H17.3052H17.234H17.1628H17.0915H17.0201H16.9486H16.8771H16.8055H16.7338H16.6621H16.5903H16.5185H16.4466H16.3746H16.3026H16.2305H16.1584H16.0863H16.014H15.9418H15.8695H15.7972H15.7248H15.6524H15.58H15.5075H15.435H15.3625H15.2899H15.2174H15.1448H15.0722H14.9995H14.9269H14.8542H14.7816H14.7089H14.6362H14.5635H14.4909H14.4182H14.3455H14.2728H14.2002H14.1275H14.0549H13.9822H13.9096H13.837H13.7644H13.6918H13.6193H13.5468H13.4743H13.4018H13.3294H13.257H13.1847H13.1123H13.04H12.9678H12.8956H12.8235H12.7514H12.6793H12.6073H12.5354H12.4635H12.3916H12.3199H12.2482H12.1765H12.1049H12.0334H11.962H11.8906H11.8193H11.7481H11.677H11.606H11.535H11.4641H11.3933H11.3226H11.252H11.1815H11.111H11.0407H10.9705H10.9004H10.8303H10.7604H10.6906H10.6209H10.5513H10.4819H10.4125H10.3433H10.2742H10.2052H10.1363H10.0676H9.99898H9.9305H9.86215H9.79395H9.72587H9.65794H9.59015H9.5225H9.455H9.38764H9.32044H9.25338H9.18649H9.11974H9.05316H8.98673H8.92047H8.85437H8.78844H8.72268H8.65708H8.59166H8.52642H8.46135H8.39646H8.33175H8.26722H8.20288H8.13873H8.07476H8.01099H7.94741H7.88402H7.82084H7.75785H7.69506H7.63248H7.57011H7.50794H7.44598H7.38423H7.3227H7.26138H7.20029H7.13941H7.07876H7.01833H6.95812H6.89815H6.8384H6.77889H6.71961H6.66058H6.60177H6.54322H6.4849H6.42683H6.36901H6.31143H6.25411H6.19704H6.14023H6.08367H6.02738H5.97134H5.91557H5.86007H5.80483H5.74987H5.69517H5.64075H5.58661H5.53275H5.47917H5.42586H5.37285H5.32012H5.26768H5.21553H5.16367H5.11211H5.06085H5.00988H4.95922H4.90886H4.85881H4.80906H4.75962H4.7105H4.66169H4.61319H4.56501H4.51716H4.46962H4.42241H4.37552H4.32897H4.28274H4.23685H4.19129H4.14606H4.10118H4.05664H4.01244H3.96858H3.92507H3.88191H3.83911H3.79665H3.75455H3.71281H3.67143H3.63041H3.58975H3.54946H3.50953H3.46998H3.4308H3.39199H3.35356H3.3155H3.27783H3.24054H3.20363H3.16711H3.13098H3.09524H3.05989H3.02494H2.99038H2.95622H2.92246H2.88911H2.85616H2.82362H2.79149H2.75977H2.72846H2.69757H2.66709H2.63704H2.60741H2.5782H2.54942H2.52106H2.49314H2.46564H2.43859H2.41196H2.38578H2.36004H2.33474H2.30988H2.28547H2.26151H2.238H2.21494H2.19234H2.1702H2.14851H2.12729H2.10653H2.08623H2.0664H2.04704H2.02816H2.00974H1.99181H1.97435H1.95737H1.94087H1.92485H1.90933H1.89429H1.87974H1.86568H1.85212H1.83905H1.82648H1.81442H1.80285H1.7918H1.78124H1.7712H1.76167H1.75265H1.74414H1.73616H1.72869H1.72175H1.71532H1.70943H1.70406H1.69922H1.59922V26.1116V27.301V27.401H1.69922H27.3008H27.4008V27.301V26.1116ZM8.08655 22.43V22.33H7.98655H4.02148H3.92148V22.43V24.4123V24.5123H4.02148H7.98655H8.08655V24.4123V22.43ZM3.92148 20.7308V20.8308H4.02148H7.98655H8.08655V20.7308V10.7277V10.5276L7.92654 10.6477L3.96147 13.6223L3.92148 13.6523V13.7023V20.7308ZM10.8186 24.5123H10.9186V24.4123V14.5002C10.9186 14.0862 11.2542 13.7506 11.6682 13.7506H17.3318C17.7458 13.7506 18.0814 14.0862 18.0814 14.5002V24.4123V24.5123H18.1814H19.3142H19.4142V24.4123V9.45287V9.40288L19.3742 9.37288L14.56 5.76113L14.5 5.71611L14.44 5.76113L9.62576 9.37288L9.58577 9.40288V9.45287V24.4123V24.5123H9.68577H10.8186ZM16.5822 15.3498V15.2498H16.4822H12.5178H12.4178V15.3498V24.4123V24.5123H12.5178H16.4822H16.5822V24.4123V15.3498ZM25.0785 22.43V22.33H24.9785H21.0134H20.9134V22.43V24.4123V24.5123H21.0134H24.9785H25.0785V24.4123V22.43ZM20.9134 20.7308V20.8308H21.0134H24.9785H25.0785V20.7308V13.7023V13.6523L25.0385 13.6223L21.0735 10.6477L20.9134 10.5276V10.7277V20.7308ZM14.0501 4.17942L13.9901 4.09943L14.0501 4.17941C14.3167 3.97942 14.6833 3.97942 14.9499 4.17941L15.0099 4.09943L14.9499 4.17942L27.2408 13.4005L27.4008 13.5205V13.3205V11.5152V11.4652L27.3608 11.4352L14.56 1.83197L14.5 1.78695L14.44 1.83197L1.63921 11.4352L1.59922 11.4652V11.5152V13.3205V13.5205L1.75923 13.4005L14.0501 4.17942Z" fill="white" stroke="#89975C" stroke-width="0.2"/>
<path d="M4.68881 14.4999V14.4999C4.68886 14.0859 5.02449 13.7504 5.43842 13.7504H6.5705C6.98448 13.7504 7.32011 14.086 7.32011 14.5V19.3146C7.32011 19.7285 6.98448 20.0642 6.5705 20.0642H5.43774C5.02378 20.0642 4.68803 19.7282 4.68813 19.3145V19.3145L4.68881 14.4999Z" fill="white" stroke="#89975C" stroke-width="0.2"/>
<path d="M24.3118 19.3145V19.3145C24.3119 19.7284 23.9759 20.0642 23.5622 20.0642H22.4294C22.0155 20.0642 21.6798 19.7285 21.6798 19.3146V14.5C21.6798 14.086 22.0155 13.7504 22.4294 13.7504H23.5615C23.9755 13.7504 24.3111 14.0859 24.3111 14.4999L24.3118 19.3145Z" fill="white" stroke="#89975C" stroke-width="0.2"/>
</g>
</svg>
