<svg width="29" height="29" viewBox="0 0 29 29" fill="none" xmlns="http://www.w3.org/2000/svg">
<g opacity="0.55">
<path d="M0.399791 10.4908L0.399798 10.4908L14.0502 0.250205C14.3167 0.0502572 14.6833 0.0502572 14.9499 0.250205L28.6003 10.4908C28.789 10.6324 28.9 10.8546 28.9 11.0905V11.092V11.0938V11.0961V11.0987V11.1016V11.105V11.1087V11.1128V11.1172V11.122V11.1272V11.1328V11.1386V11.1449V11.1515V11.1585V11.1658V11.1734V11.1815V11.1898V11.1985V11.2076V11.217V11.2267V11.2368V11.2472V11.258V11.2691V11.2805V11.2923V11.3044V11.3168V11.3296V11.3427V11.3561V11.3698V11.3839V11.3983V11.413V11.428V11.4434V11.459V11.475V11.4913V11.5079V11.5248V11.542V11.5595V11.5774V11.5955V11.6139V11.6327V11.6517V11.6711V11.6907V11.7106V11.7309V11.7514V11.7722V11.7933V11.8147V11.8363V11.8583V11.8805V11.9031V11.9259V11.949V11.9723V11.996V12.0199V12.0441V12.0685V12.0933V12.1183V12.1435V12.1691V12.1949V12.2209V12.2472V12.2738V12.3007V12.3278V12.3551V12.3827V12.4106V12.4387V12.4671V12.4957V12.5245V12.5536V12.583V12.6126V12.6424V12.6725V12.7028V12.7333V12.7641V12.7951V12.8264V12.8578V12.8895V12.9215V12.9536V12.986V13.0186V13.0515V13.0845V13.1178V13.1513V13.185V13.2189V13.253V13.2873V13.3219V13.3567V13.3916V13.4268V13.4622V13.4978V13.5335V13.5695V13.6057V13.6421V13.6786V13.7154V13.7524V13.7895V13.8269V13.8644V13.9021V13.94V13.9781V14.0163V14.0548V14.0934V14.1322V14.1712V14.2103V14.2496V14.2891V14.3288V14.3686V14.4086V14.4488V14.4891V14.5296V14.5703V14.6111V14.6521V14.6932V14.7345V14.776V14.8175V14.8593V14.9012V14.9432V14.9854V15.0278V15.0702V15.1129V15.1556V15.1985V15.2416V15.2847V15.328V15.3715V15.4151V15.4588V15.5026V15.5466V15.5907V15.6349V15.6792V15.7237V15.7682V15.8129V15.8578V15.9027V15.9477V15.9929V16.0382V16.0835V16.129V16.1746V16.2203V16.2661V16.312V16.358V16.4041V16.4503V16.4966V16.543V16.5895V16.6361V16.6828V16.7295V16.7764V16.8233V16.8704V16.9175V16.9646V17.0119V17.0593V17.1067V17.1542V17.2017V17.2494V17.2971V17.3449V17.3928V17.4407V17.4887V17.5367V17.5848V17.633V17.6812V17.7295V17.7779V17.8263V17.8748V17.9233V17.9718V18.0205V18.0691V18.1178V18.1666V18.2154V18.2642V18.3131V18.362V18.411V18.46V18.509V18.558V18.6071V18.6563V18.7054V18.7546V18.8038V18.853V18.9023V18.9515V19.0008V19.0501V19.0995V19.1488V19.1982V19.2475V19.2969V19.3463V19.3957V19.4451V19.4945V19.5439V19.5934V19.6428V19.6922V19.7416V19.791V19.8404V19.8898V19.9392V19.9886V20.038V20.0873V20.1367V20.186V20.2353V20.2846V20.3339V20.3831V20.4324V20.4816V20.5308V20.5799V20.629V20.6781V20.7272V20.7762V20.8252V20.8742V20.9231V20.972V21.0208V21.0696V21.1184V21.1671V21.2158V21.2644V21.3129V21.3615V21.4099V21.4583V21.5067V21.555V21.6032V21.6514V21.6995V21.7476V21.7956V21.8435V21.8914V21.9392V21.9869V22.0345V22.0821V22.1296V22.1771V22.2244V22.2717V22.3189V22.366V22.413V22.4599V22.5068V22.5536V22.6003V22.6468V22.6933V22.7397V22.7861V22.8323V22.8784V22.9244V22.9703V23.0161V23.0618V23.1074V23.1529V23.1983V23.2436V23.2888V23.3338V23.3787V23.4236V23.4683V23.5129V23.5573V23.6017V23.6459V23.69V23.734V23.7778V23.8215V23.8651V23.9086V23.9519V23.9951V24.0381V24.081V24.1238V24.1665V24.2089V24.2513V24.2935V24.3355V24.3775V24.4192V24.4608V24.5023V24.5436V24.5847V24.6257V24.6665V24.7072V24.7477V24.7881V24.8282V24.8683V24.9081V24.9478V24.9873V25.0266V25.0658V25.1048V25.1436V25.1822V25.2207V25.259V25.2971V25.335V25.3727V25.4102V25.4476V25.4848V25.5217V25.5585V25.5951V25.6315V25.6677V25.7037V25.7395V25.7751V25.8105V25.8456V25.8806V25.9154V25.95V25.9843V26.0185V26.0524V26.0861V26.1196V26.1529V26.186V26.2188V26.2515V26.2839V26.316V26.348V26.3797V26.4112V26.4425V26.4735V26.5043V26.5349V26.5652V26.5953V26.6251V26.6547V26.6841V26.7132V26.7421V26.7707V26.7991V26.8273V26.8551V26.8828V26.9101V26.9373V26.9641V26.9907V27.0171V27.0431V27.069V27.0945V27.1198V27.1448V27.1696V27.1941V27.2183V27.2422V27.2659V27.2892V27.3124V27.3352V27.3577V27.38V27.402V27.4237V27.4451V27.4662V27.487V27.5076V27.5278V27.5478V27.5674V27.5868V27.6059V27.6246V27.6431V27.6613V27.6791V27.6967V27.7139V27.7308V27.7475V27.7638V27.7798V27.7955V27.8108V27.8259V27.8406V27.855V27.8691V27.8829V27.8963V27.9094V27.9222V27.9347V27.9468V27.9586V27.9701V27.9812V27.992V28.0024V28.0125V28.0223V28.0317V28.0408V28.0496V28.0579V28.066V28.0737V28.081V28.088V28.0946V28.1009V28.1068V28.1124V28.1176V28.1224V28.1269V28.131V28.1348V28.1382V28.1412V28.1438V28.1461V28.148V28.1495V28.1506C28.9 28.5646 28.5644 28.9002 28.1504 28.9002H28.1486H28.1461H28.1431H28.1395H28.1353H28.1304H28.125H28.119H28.1124H28.1052H28.0975H28.0891H28.0802H28.0707H28.0606H28.05H28.0388H28.027H28.0147H28.0018H27.9883H27.9743H27.9597H27.9446H27.9289H27.9126H27.8959H27.8786H27.8607H27.8423H27.8234H27.8039H27.7839H27.7634H27.7423H27.7208H27.6987H27.6761H27.6529H27.6293H27.6051H27.5804H27.5553H27.5296H27.5034H27.4767H27.4495H27.4218H27.3937H27.365H27.3359H27.3062H27.2761H27.2455H27.2144H27.1829H27.1508H27.1183H27.0854H27.0519H27.018H26.9836H26.9488H26.9135H26.8778H26.8416H26.8049H26.7679H26.7303H26.6923H26.6539H26.615H26.5758H26.536H26.4959H26.4553H26.4142H26.3728H26.3309H26.2886H26.2459H26.2028H26.1593H26.1154H26.071H26.0263H25.9811H25.9355H25.8896H25.8432H25.7965H25.7493H25.7018H25.6539H25.6056H25.5569H25.5079H25.4584H25.4086H25.3584H25.3079H25.257H25.2057H25.154H25.102H25.0497H24.997H24.9439H24.8904H24.8367H24.7826H24.7281H24.6733H24.6181H24.5627H24.5068H24.4507H24.3942H24.3374H24.2803H24.2228H24.1651H24.107H24.0486H23.9898H23.9308H23.8715H23.8118H23.7519H23.6916H23.6311H23.5702H23.5091H23.4477H23.386H23.324H23.2617H23.1991H23.1362H23.0731H23.0097H22.946H22.8821H22.8179H22.7534H22.6887H22.6236H22.5584H22.4929H22.4271H22.3611H22.2948H22.2283H22.1615H22.0945H22.0273H21.9598H21.8921H21.8241H21.7559H21.6875H21.6189H21.55H21.481H21.4117H21.3422H21.2724H21.2025H21.1324H21.062H20.9914H20.9207H20.8497H20.7786H20.7072H20.6357H20.564H20.4921H20.42H20.3477H20.2752H20.2026H20.1298H20.0568H19.9836H19.9103H19.8368H19.7631H19.6893H19.6153H19.5412H19.4669H19.3925H19.3179H19.2432H19.1683H19.0932H19.0181H18.9428H18.8673H18.7918H18.7161H18.6402H18.5643H18.4882H18.412H18.3357H18.2593H18.1827H18.1061H18.0293H17.9524H17.8755H17.7984H17.7212H17.6439H17.5665H17.4891H17.4115H17.3339H17.2562H17.1784H17.1005H17.0225H16.9444H16.8663H16.7881H16.7099H16.6316H16.5532H16.4747H16.3962H16.3176H16.239H16.1604H16.0816H16.0029H15.924H15.8452H15.7663H15.6873H15.6084H15.5294H15.4503H15.3713H15.2922H15.2131H15.1339H15.0548H14.9756H14.8964H14.8172H14.738H14.6588H14.5796H14.5004H14.4211H14.3419H14.2627H14.1835H14.1043H14.0251H13.9459H13.8668H13.7877H13.7085H13.6294H13.5504H13.4713H13.3923H13.3134H13.2344H13.1555H13.0767H12.9979H12.9191H12.8404H12.7617H12.6831H12.6045H12.526H12.4475H12.3692H12.2908H12.2126H12.1344H12.0563H11.9782H11.9002H11.8224H11.7445H11.6668H11.5892H11.5116H11.4342H11.3568H11.2795H11.2023H11.1252H11.0483H10.9714H10.8946H10.818H10.7414H10.665H10.5887H10.5125H10.4364H10.3604H10.2846H10.2089H10.1333H10.0579H9.9826H9.90744H9.83241H9.75753H9.68279H9.6082H9.53376H9.45947H9.38533H9.31136H9.23754H9.16388H9.09038H9.01705H8.94389H8.8709H8.79808H8.72544H8.65298H8.58069H8.50859H8.43668H8.36495H8.29341H8.22206H8.15091H8.07995H8.00919H7.93864H7.86829H7.79814H7.72821H7.65848H7.58897H7.51967H7.45059H7.38174H7.3131H7.24469H7.17651H7.10856H7.04084H6.97335H6.9061H6.8391H6.77233H6.70581H6.63953H6.57351H6.50773H6.44221H6.37694H6.31194H6.24719H6.18271H6.11849H6.05454H5.99086H5.92745H5.86432H5.80147H5.73889H5.6766H5.61459H5.55287H5.49144H5.4303H5.36946H5.30891H5.24866H5.18871H5.12906H5.06972H5.01069H4.95197H4.89356H4.83547H4.77769H4.72024H4.6631H4.6063H4.54981H4.49366H4.43784H4.38236H4.32721H4.2724H4.21794H4.16381H4.11003H4.05661H4.00353H3.9508H3.89843H3.84642H3.79477H3.74348H3.69256H3.64201H3.59182H3.54201H3.49257H3.44351H3.39483H3.34653H3.29861H3.25108H3.20394H3.15719H3.11083H3.06487H3.01931H2.97415H2.92939H2.88504H2.8411H2.79756H2.75444H2.71173H2.66944H2.62757H2.58613H2.5451H2.50451H2.46434H2.4246H2.3853H2.34644H2.30801H2.27002H2.23248H2.19538H2.15874H2.12254H2.08679H2.0515H2.01667H1.9823H1.94839H1.91494H1.88196H1.84946H1.81742H1.78586H1.75477H1.72416H1.69404H1.6644H1.63524H1.60657H1.5784H1.55071H1.52353H1.49684H1.47065H1.44496H1.41978H1.3951H1.37094H1.34729H1.32415H1.30153H1.27943H1.25785H1.23679H1.21626H1.19626H1.17679H1.15785H1.13945H1.12159H1.10427H1.08749H1.07126H1.05557H1.04044H1.02586H1.01183H0.998357H0.985445H0.973096H0.961311H0.950093H0.939444H0.929367H0.919863H0.910935H0.902586H0.894818H0.887633H0.881034H0.875023H0.869602H0.864774H0.860541H0.856906H0.853871H0.851438H0.849609C0.435627 28.9002 0.1 28.5646 0.1 28.1506V28.1495V28.148V28.1461V28.1438V28.1412V28.1382V28.1348V28.131V28.1269V28.1224V28.1176V28.1124V28.1068V28.1009V28.0946V28.088V28.081V28.0737V28.066V28.0579V28.0495V28.0408V28.0317V28.0223V28.0125V28.0024V27.992V27.9812V27.97V27.9586V27.9468V27.9347V27.9222V27.9094V27.8963V27.8828V27.8691V27.855V27.8406V27.8258V27.8108V27.7954V27.7797V27.7637V27.7474V27.7308V27.7139V27.6966V27.6791V27.6612V27.643V27.6246V27.6058V27.5868V27.5674V27.5477V27.5278V27.5075V27.487V27.4661V27.445V27.4236V27.4019V27.3799V27.3577V27.3351V27.3123V27.2892V27.2658V27.2421V27.2182V27.194V27.1695V27.1448V27.1197V27.0944V27.0689V27.0431V27.017V26.9906V26.964V26.9372V26.9101V26.8827V26.855V26.8272V26.799V26.7706V26.742V26.7131V26.684V26.6546V26.625V26.5952V26.5651V26.5348V26.5042V26.4734V26.4424V26.4111V26.3796V26.3479V26.3159V26.2838V26.2514V26.2187V26.1859V26.1528V26.1195V26.086V26.0523V26.0184V25.9842V25.9499V25.9153V25.8805V25.8455V25.8103V25.7749V25.7393V25.7035V25.6675V25.6313V25.595V25.5584V25.5216V25.4846V25.4474V25.4101V25.3726V25.3348V25.2969V25.2588V25.2205V25.1821V25.1434V25.1046V25.0656V25.0265V24.9871V24.9476V24.9079V24.8681V24.8281V24.7879V24.7475V24.707V24.6664V24.6255V24.5845V24.5434V24.5021V24.4606V24.419V24.3773V24.3354V24.2933V24.2511V24.2088V24.1663V24.1236V24.0809V24.0379V23.9949V23.9517V23.9084V23.8649V23.8213V23.7776V23.7338V23.6898V23.6457V23.6015V23.5571V23.5127V23.4681V23.4234V23.3785V23.3336V23.2885V23.2434V23.1981V23.1527V23.1072V23.0616V23.0159V22.9701V22.9242V22.8782V22.832V22.7858V22.7395V22.6931V22.6466V22.6V22.5533V22.5066V22.4597V22.4128V22.3657V22.3186V22.2714V22.2242V22.1768V22.1294V22.0819V22.0343V21.9866V21.9389V21.8911V21.8433V21.7953V21.7473V21.6993V21.6512V21.603V21.5547V21.5064V21.4581V21.4097V21.3612V21.3127V21.2641V21.2155V21.1668V21.1181V21.0694V21.0206V20.9717V20.9228V20.8739V20.8249V20.7759V20.7269V20.6779V20.6288V20.5796V20.5305V20.4813V20.4321V20.3829V20.3336V20.2843V20.235V20.1857V20.1364V20.087V20.0377V19.9883V19.9389V19.8895V19.8401V19.7907V19.7413V19.6919V19.6425V19.5931V19.5436V19.4942V19.4448V19.3954V19.346V19.2966V19.2472V19.1979V19.1485V19.0992V19.0498V19.0005V18.9512V18.902V18.8527V18.8035V18.7543V18.7051V18.6559V18.6068V18.5577V18.5087V18.4596V18.4106V18.3617V18.3128V18.2639V18.2151V18.1663V18.1175V18.0688V18.0201V17.9715V17.923V17.8744V17.826V17.7776V17.7292V17.6809V17.6327V17.5845V17.5364V17.4883V17.4404V17.3924V17.3446V17.2968V17.2491V17.2014V17.1538V17.1063V17.0589V17.0116V16.9643V16.9171V16.87V16.823V16.7761V16.7292V16.6825V16.6358V16.5892V16.5427V16.4963V16.45V16.4038V16.3577V16.3117V16.2658V16.22V16.1743V16.1287V16.0832V16.0378V15.9926V15.9474V15.9024V15.8574V15.8126V15.7679V15.7233V15.6789V15.6345V15.5903V15.5462V15.5023V15.4584V15.4147V15.3712V15.3277V15.2844V15.2412V15.1982V15.1553V15.1125V15.0699V15.0274V14.9851V14.9429V14.9009V14.859V14.8172V14.7756V14.7342V14.6929V14.6518V14.6108V14.57V14.5293V14.4888V14.4485V14.4083V14.3683V14.3285V14.2888V14.2493V14.21V14.1709V14.1319V14.0931V14.0545V14.016V13.9778V13.9397V13.9018V13.8641V13.8265V13.7892V13.7521V13.7151V13.6783V13.6418V13.6054V13.5692V13.5332V13.4975V13.4619V13.4265V13.3913V13.3564V13.3216V13.2871V13.2527V13.2186V13.1847V13.151V13.1175V13.0842V13.0512V13.0183V12.9857V12.9534V12.9212V12.8893V12.8576V12.8261V12.7948V12.7638V12.7331V12.7025V12.6722V12.6421V12.6123V12.5827V12.5534V12.5243V12.4954V12.4668V12.4385V12.4103V12.3825V12.3549V12.3275V12.3004V12.2736V12.247V12.2207V12.1946V12.1688V12.1433V12.118V12.093V12.0683V12.0439V12.0197V11.9958V11.9721V11.9488V11.9257V11.9029V11.8803V11.8581V11.8362V11.8145V11.7931V11.772V11.7512V11.7307V11.7105V11.6905V11.6709V11.6516V11.6325V11.6138V11.5953V11.5772V11.5594V11.5419V11.5246V11.5077V11.4911V11.4749V11.4589V11.4432V11.4279V11.4129V11.3982V11.3838V11.3697V11.356V11.3426V11.3295V11.3167V11.3043V11.2922V11.2804V11.269V11.2579V11.2471V11.2367V11.2266V11.2169V11.2075V11.1985V11.1897V11.1814V11.1734V11.1657V11.1584V11.1514V11.1448V11.1386V11.1327V11.1272V11.122V11.1172V11.1128V11.1087V11.105V11.1016V11.0986V11.096V11.0938V11.0919V11.0905C0.1 10.8546 0.211044 10.6324 0.399791 10.4908ZM3.764 27.401H3.864V27.301V13.8958V13.6958L3.70398 13.8158L1.63921 15.3649L1.59922 15.3949V15.4449V27.301V27.401H1.69922H3.764ZM16.4822 27.401H16.5822V27.301V19.9377V19.8377H16.4822H12.5179H12.4179V19.9377V27.301V27.401H12.5179H16.4822ZM23.5368 27.401H23.6368V27.301V12.621V12.571L23.5968 12.541L14.56 5.76119L14.5 5.71617L14.44 5.76119L5.4032 12.541L5.36321 12.571V12.621V27.301V27.401H5.46321H10.8186H10.9186V27.301V19.0881C10.9186 18.6741 11.2543 18.3385 11.6683 18.3385H17.3318C17.7458 18.3385 18.0814 18.6741 18.0814 19.0881V27.301V27.401H18.1814H23.5368ZM27.3008 27.401H27.4008V27.301V15.4449V15.3949L27.3608 15.3649L25.296 13.8158L25.136 13.6958V13.8958V27.301V27.401H25.236H27.3008ZM27.2408 13.4004L27.4008 13.5205V13.3205V11.5152V11.4652L27.3608 11.4352L14.56 1.83197L14.5 1.78695L14.44 1.83197L1.63921 11.4352L1.59922 11.4652V11.5152V13.3205V13.5205L1.75924 13.4004L14.0501 4.17936C14.3167 3.97936 14.6833 3.97936 14.9499 4.17936L15.0099 4.09937L14.9499 4.17936C15.2786 4.426 16.1636 5.08991 17.3195 5.9571C20.6553 8.45969 26.2477 12.6552 27.2408 13.4004Z" fill="white" stroke="#89975C" stroke-width="0.2"/>
<path d="M12.8008 10.0293H16.1992C16.6132 10.0293 16.9488 10.3649 16.9488 10.7789C16.9488 11.1929 16.6132 11.5285 16.1992 11.5285H12.8008C12.3868 11.5285 12.0512 11.1929 12.0512 10.7789C12.0512 10.3649 12.3868 10.0293 12.8008 10.0293Z" fill="white" stroke="#89975C" stroke-width="0.2"/>
<path d="M12.8008 13.7504H16.1992C16.6132 13.7504 16.9488 14.086 16.9488 14.5C16.9488 14.914 16.6132 15.2496 16.1992 15.2496H12.8008C12.3868 15.2496 12.0512 14.914 12.0512 14.5C12.0512 14.086 12.3868 13.7504 12.8008 13.7504Z" fill="white" stroke="#89975C" stroke-width="0.2"/>
<path d="M8.42408 23.9457H8.52408V23.8457V15.3496V15.2496H8.42408H7.85767H7.75767V15.3496V23.8457V23.9457H7.85767H8.42408ZM7.00806 13.7504H9.27369C9.68767 13.7504 10.0233 14.086 10.0233 14.5V24.6953C10.0233 25.1093 9.68767 25.4449 9.27369 25.4449H7.00806C6.59407 25.4449 6.25845 25.1093 6.25845 24.6953V14.5C6.25845 14.086 6.59407 13.7504 7.00806 13.7504Z" fill="white" stroke="#89975C" stroke-width="0.2"/>
<path d="M21.1423 23.9457H21.2423V23.8457V15.3496V15.2496H21.1423H20.5759H20.4759V15.3496V23.8457V23.9457H20.5759H21.1423ZM19.7263 13.7504H21.9919C22.4059 13.7504 22.7416 14.086 22.7416 14.5V24.6953C22.7416 25.1093 22.4059 25.4449 21.9919 25.4449H19.7263C19.3123 25.4449 18.9767 25.1093 18.9767 24.6953V14.5C18.9767 14.086 19.3123 13.7504 19.7263 13.7504Z" fill="white" stroke="#89975C" stroke-width="0.2"/>
</g>
</svg>
